<svg width="151" height="66" viewBox="0 0 151 66" fill="none" xmlns="http://www.w3.org/2000/svg">
<path d="M8.61 5.26781H11.45C11.99 5.26781 12.455 5.37115 12.845 5.57781C13.235 5.78115 13.5317 6.06781 13.735 6.43781C13.9383 6.80448 14.04 7.22781 14.04 7.70781C14.04 8.19115 13.935 8.61781 13.725 8.98781C13.5183 9.35448 13.2167 9.63948 12.82 9.84281C12.4267 10.0461 11.9567 10.1478 11.41 10.1478H10.11V12.5078H8.61V5.26781ZM11.17 8.93781C11.6033 8.93781 11.9317 8.82781 12.155 8.60781C12.3783 8.38448 12.49 8.08448 12.49 7.70781C12.49 7.33448 12.3783 7.03948 12.155 6.82281C11.9317 6.60615 11.6033 6.49781 11.17 6.49781H10.11V8.93781H11.17ZM14.99 5.26781H17.83C18.3733 5.26781 18.8383 5.36448 19.225 5.55781C19.615 5.75115 19.9117 6.02615 20.115 6.38281C20.3183 6.73615 20.42 7.15115 20.42 7.62781C20.42 8.12115 20.31 8.54448 20.09 8.89781C19.87 9.25115 19.5533 9.51615 19.14 9.69281L20.68 12.5078H19.02L17.635 9.93781H16.49V12.5078H14.99V5.26781ZM17.55 8.71781C18.43 8.71781 18.87 8.35448 18.87 7.62781C18.87 7.25781 18.76 6.97781 18.54 6.78781C18.32 6.59448 17.99 6.49781 17.55 6.49781H16.49V8.71781H17.55ZM22.96 12.5078H21.46V5.26781H22.96V12.5078ZM29.02 7.78781C28.98 7.52448 28.8883 7.29615 28.745 7.10281C28.6017 6.90615 28.4183 6.75615 28.195 6.65281C27.9717 6.54948 27.72 6.49781 27.44 6.49781C27.0633 6.49781 26.7333 6.59281 26.45 6.78281C26.17 6.96948 25.9533 7.24281 25.8 7.60281C25.6467 7.95948 25.57 8.38781 25.57 8.88781C25.57 9.39781 25.6467 9.83281 25.8 10.1928C25.9533 10.5495 26.17 10.8195 26.45 11.0028C26.73 11.1861 27.0567 11.2778 27.43 11.2778C27.8467 11.2778 28.1967 11.1678 28.48 10.9478C28.7667 10.7278 28.9467 10.4245 29.02 10.0378L30.54 10.0478C30.4833 10.5045 30.3217 10.9278 30.055 11.3178C29.7883 11.7078 29.4283 12.0211 28.975 12.2578C28.5217 12.4911 28 12.6078 27.41 12.6078C26.76 12.6078 26.18 12.4611 25.67 12.1678C25.16 11.8711 24.76 11.4428 24.47 10.8828C24.1833 10.3228 24.04 9.65781 24.04 8.88781C24.04 8.12115 24.185 7.45781 24.475 6.89781C24.7683 6.33448 25.17 5.90615 25.68 5.61281C26.1933 5.31615 26.77 5.16781 27.41 5.16781C27.9667 5.16781 28.47 5.27115 28.92 5.47781C29.37 5.68448 29.735 5.98615 30.015 6.38281C30.2983 6.77615 30.4733 7.24448 30.54 7.78781H29.02ZM31.59 5.26781H36.45V6.50781H33.09V8.26781H36.2V9.50781H33.09V11.2678H36.46V12.5078H31.59V5.26781Z" fill="#2D3034"/>
<path d="M9.908 37.748L9.244 35.188H8.396V34.508H9.068L8.404 31.956H9.26L9.868 34.508H10.892L11.532 31.956H12.412L13.052 34.508H14.072L14.684 31.956H15.54L14.872 34.508H15.548V35.188H14.696L14.028 37.748H13.148L12.484 35.188H11.46L10.796 37.748H9.908ZM10.032 35.188L10.34 36.476H10.396L10.72 35.188H10.032ZM11.64 34.508H12.304L11.996 33.316H11.948L11.64 34.508ZM13.224 35.188L13.548 36.484H13.596L13.908 35.188H13.224ZM20.236 37.828C18.896 37.828 18.108 36.748 18.108 34.852C18.108 32.968 18.904 31.876 20.236 31.876C21.564 31.876 22.36 32.968 22.364 34.852C22.36 36.748 21.576 37.828 20.236 37.828ZM18.988 34.852C18.984 36.296 19.452 37.068 20.236 37.068C21.016 37.068 21.484 36.296 21.484 34.852C21.484 33.412 21.012 32.624 20.236 32.62C19.456 32.624 18.988 33.412 18.988 34.852Z" fill="#6A42DB"/>
<path d="M102.836 37.748L102.172 35.188H101.324V34.508H101.996L101.332 31.956H102.188L102.796 34.508H103.82L104.46 31.956H105.34L105.98 34.508H107L107.612 31.956H108.468L107.8 34.508H108.476V35.188H107.624L106.956 37.748H106.076L105.412 35.188H104.388L103.724 37.748H102.836ZM102.96 35.188L103.268 36.476H103.324L103.648 35.188H102.96ZM104.568 34.508H105.232L104.924 33.316H104.876L104.568 34.508ZM106.152 35.188L106.476 36.484H106.524L106.836 35.188H106.152ZM111.348 37.748L113.932 32.756V32.708H110.948V31.956H114.844V32.74L112.268 37.748H111.348ZM115.14 36.62V35.908L117.7 31.956H118.788V35.876H119.58V36.62H118.788V37.748H117.956V36.62H115.14ZM116.068 35.876H117.956V33.004H117.892L116.068 35.828V35.876ZM121.292 37.196L120.652 39.404H119.972L120.396 37.196H121.292ZM124.244 37.828C122.904 37.828 122.116 36.748 122.116 34.852C122.116 32.968 122.912 31.876 124.244 31.876C125.572 31.876 126.368 32.968 126.372 34.852C126.368 36.748 125.584 37.828 124.244 37.828ZM122.996 34.852C122.992 36.296 123.46 37.068 124.244 37.068C125.024 37.068 125.492 36.296 125.492 34.852C125.492 33.412 125.02 32.624 124.244 32.62C123.464 32.624 122.996 33.412 122.996 34.852ZM129.3 37.828C127.96 37.828 127.172 36.748 127.172 34.852C127.172 32.968 127.968 31.876 129.3 31.876C130.628 31.876 131.424 32.968 131.428 34.852C131.424 36.748 130.64 37.828 129.3 37.828ZM128.052 34.852C128.048 36.296 128.516 37.068 129.3 37.068C130.08 37.068 130.548 36.296 130.548 34.852C130.548 33.412 130.076 32.624 129.3 32.62C128.52 32.624 128.052 33.412 128.052 34.852ZM134.356 37.828C133.016 37.828 132.228 36.748 132.228 34.852C132.228 32.968 133.024 31.876 134.356 31.876C135.684 31.876 136.48 32.968 136.484 34.852C136.48 36.748 135.696 37.828 134.356 37.828ZM133.108 34.852C133.104 36.296 133.572 37.068 134.356 37.068C135.136 37.068 135.604 36.296 135.604 34.852C135.604 33.412 135.132 32.624 134.356 32.62C133.576 32.624 133.108 33.412 133.108 34.852Z" fill="#6A42DB"/>
<rect x="16.1924" y="47.8916" width="134.656" height="3.072" rx="1.536" fill="#F2F4F8"/>
<rect x="16.1924" y="47.8916" width="107.008" height="3.072" rx="1.536" fill="#6A42DB"/>
<g filter="url(#filter0_d_274_12881)">
<circle cx="16.1923" cy="49.4276" r="5.12" fill="white"/>
<circle cx="16.1923" cy="49.4276" r="4.864" stroke="#CFDBEA" stroke-width="0.512"/>
</g>
<g filter="url(#filter1_d_274_12881)">
<circle cx="122.176" cy="49.4276" r="5.12" fill="white"/>
<circle cx="122.176" cy="49.4276" r="4.864" stroke="#CFDBEA" stroke-width="0.512"/>
</g>
<defs>
<filter id="filter0_d_274_12881" x="0.832265" y="35.0916" width="30.7202" height="30.7202" filterUnits="userSpaceOnUse" color-interpolation-filters="sRGB">
<feFlood flood-opacity="0" result="BackgroundImageFix"/>
<feColorMatrix in="SourceAlpha" type="matrix" values="0 0 0 0 0 0 0 0 0 0 0 0 0 0 0 0 0 0 127 0" result="hardAlpha"/>
<feOffset dy="1.024"/>
<feGaussianBlur stdDeviation="5.12"/>
<feComposite in2="hardAlpha" operator="out"/>
<feColorMatrix type="matrix" values="0 0 0 0 0 0 0 0 0 0 0 0 0 0 0 0 0 0 0.04 0"/>
<feBlend mode="normal" in2="BackgroundImageFix" result="effect1_dropShadow_274_12881"/>
<feBlend mode="normal" in="SourceGraphic" in2="effect1_dropShadow_274_12881" result="shape"/>
</filter>
<filter id="filter1_d_274_12881" x="106.816" y="35.0916" width="30.7202" height="30.7202" filterUnits="userSpaceOnUse" color-interpolation-filters="sRGB">
<feFlood flood-opacity="0" result="BackgroundImageFix"/>
<feColorMatrix in="SourceAlpha" type="matrix" values="0 0 0 0 0 0 0 0 0 0 0 0 0 0 0 0 0 0 127 0" result="hardAlpha"/>
<feOffset dy="1.024"/>
<feGaussianBlur stdDeviation="5.12"/>
<feComposite in2="hardAlpha" operator="out"/>
<feColorMatrix type="matrix" values="0 0 0 0 0 0 0 0 0 0 0 0 0 0 0 0 0 0 0.04 0"/>
<feBlend mode="normal" in2="BackgroundImageFix" result="effect1_dropShadow_274_12881"/>
<feBlend mode="normal" in="SourceGraphic" in2="effect1_dropShadow_274_12881" result="shape"/>
</filter>
</defs>
</svg>
