<svg width="139" height="45" viewBox="0 0 139 45" fill="none" xmlns="http://www.w3.org/2000/svg">
<path d="M1.16 4.76H2.8L4.02 9.82H4.08L5.41 4.76H6.82L8.15 9.83H8.21L9.43 4.76H11.07L9 12H7.53L6.15 7.22H6.09L4.7 12H3.23L1.16 4.76ZM13.34 12H11.84V4.76H13.34V12ZM20.6 12H19.3L16.12 7.4H16.06V12H14.56V4.76H15.88L19.04 9.36H19.11V4.76H20.6V12ZM21.82 4.76H26.68V6H23.32V7.76H26.43V9H23.32V10.76H26.69V12H21.82V4.76ZM29.93 4.76H35.86V6H33.64V12H32.15V6H29.93V4.76ZM38.04 4.76L39.71 7.88H39.78L41.44 4.76H43.13L40.49 9.42V12H38.99V9.42L36.35 4.76H38.04ZM43.91 4.76H46.75C47.29 4.76 47.755 4.86333 48.145 5.07C48.535 5.27333 48.8317 5.56 49.035 5.93C49.2383 6.29667 49.34 6.72 49.34 7.2C49.34 7.68333 49.235 8.11 49.025 8.48C48.8183 8.84667 48.5167 9.13167 48.12 9.335C47.7267 9.53833 47.2567 9.64 46.71 9.64H45.41V12H43.91V4.76ZM46.47 8.43C46.9033 8.43 47.2317 8.32 47.455 8.1C47.6783 7.87667 47.79 7.57667 47.79 7.2C47.79 6.82667 47.6783 6.53167 47.455 6.315C47.2317 6.09833 46.9033 5.99 46.47 5.99H45.41V8.43H46.47ZM50.29 4.76H55.15V6H51.79V7.76H54.9V9H51.79V10.76H55.16V12H50.29V4.76ZM60.25 6.83C60.22 6.54333 60.095 6.32 59.875 6.16C59.655 6 59.3633 5.92 59 5.92C58.75 5.92 58.535 5.95667 58.355 6.03C58.1783 6.1 58.0433 6.19833 57.95 6.325C57.8567 6.45167 57.81 6.59667 57.81 6.76C57.81 6.99333 57.915 7.18 58.125 7.32C58.335 7.46 58.6167 7.57 58.97 7.65L59.62 7.81C60.29 7.96 60.8183 8.20833 61.205 8.555C61.595 8.89833 61.79 9.35667 61.79 9.93C61.79 10.3733 61.6783 10.7583 61.455 11.085C61.2317 11.4083 60.91 11.6583 60.49 11.835C60.07 12.0117 59.57 12.1 58.99 12.1C58.4033 12.1 57.8933 12.01 57.46 11.83C57.03 11.65 56.695 11.385 56.455 11.035C56.2183 10.6817 56.0933 10.25 56.08 9.74H57.54C57.5633 10.0967 57.7033 10.37 57.96 10.56C58.22 10.7467 58.5567 10.84 58.97 10.84C59.23 10.84 59.4583 10.8017 59.655 10.725C59.8517 10.6483 60.0033 10.5417 60.11 10.405C60.2167 10.2683 60.27 10.11 60.27 9.93C60.27 9.69667 60.1683 9.51167 59.965 9.375C59.765 9.23833 59.4533 9.11667 59.03 9.01L58.24 8.82C56.9267 8.49667 56.27 7.84 56.27 6.85C56.27 6.41667 56.3867 6.035 56.62 5.705C56.8567 5.37167 57.1833 5.115 57.6 4.935C58.0167 4.75167 58.4867 4.66 59.01 4.66C59.5367 4.66 60.0017 4.75167 60.405 4.935C60.8083 5.11833 61.1217 5.375 61.345 5.705C61.5683 6.03167 61.6833 6.40667 61.69 6.83H60.25Z" fill="#2D3034"/>
<rect x="1.17983" y="22.7843" width="32.92" height="20.992" rx="10.496" fill="white"/>
<rect x="1.17983" y="22.7843" width="32.92" height="20.992" rx="10.496" stroke="#CFDBEA" stroke-width="0.512"/>
<path d="M10.7316 36.2803V30.4883H12.7956C14.1436 30.4883 14.8036 31.2363 14.8036 32.3043C14.8036 33.0843 14.4516 33.6723 13.7476 33.9403L15.0276 36.2803H14.0276L12.8516 34.0963H12.7956H11.6116V36.2803H10.7316ZM11.6116 33.3363H12.7076C13.5596 33.3323 13.9156 32.9563 13.9156 32.3043C13.9156 31.6523 13.5596 31.2443 12.7076 31.2403H11.6116V33.3363ZM17.5236 36.3683C16.2436 36.3683 15.4556 35.4843 15.4596 34.1363C15.4556 32.8003 16.2556 31.8803 17.4676 31.8803C18.4556 31.8803 19.3956 32.4923 19.3956 34.0643V34.3683H16.3076C16.3316 35.1963 16.8196 35.6643 17.5316 35.6643C18.0156 35.6643 18.3316 35.4563 18.4756 35.1923H19.3396C19.1476 35.8963 18.4796 36.3683 17.5236 36.3683ZM16.3116 33.7283H18.5556C18.5556 33.0683 18.1276 32.5803 17.4756 32.5843C16.7916 32.5803 16.3476 33.1163 16.3116 33.7283ZM21.8676 36.3683C20.8196 36.3643 20.0516 35.5203 20.0516 34.1203C20.0516 32.7043 20.8316 31.8803 21.8756 31.8803C22.6836 31.8803 22.9756 32.3683 23.1316 32.6403H23.1716V30.4883H24.0276V36.2803H23.1956V35.6003H23.1316C22.9716 35.8843 22.6596 36.3643 21.8676 36.3683ZM20.9236 34.1043C20.9196 34.9763 21.3116 35.6363 22.0596 35.6403C22.7876 35.6363 23.1956 35.0163 23.1956 34.1043C23.1956 33.2003 22.7956 32.6043 22.0596 32.6083C21.3036 32.6043 20.9196 33.2483 20.9236 34.1043Z" fill="#2D3034"/>
<rect x="85.3878" y="22.7843" width="52.92" height="20.992" rx="10.496" fill="white"/>
<rect x="85.3878" y="22.7843" width="52.92" height="20.992" rx="10.496" stroke="#CFDBEA" stroke-width="0.512"/>
<path d="M98.0917 32.0163C98.0357 31.4763 97.5637 31.1683 96.8997 31.1683C96.1917 31.1683 95.7437 31.5323 95.7397 32.0243C95.7397 32.5723 96.3357 32.7883 96.7957 32.8963L97.3557 33.0483C98.0957 33.2283 99.0237 33.6323 99.0277 34.6803C99.0237 35.6603 98.2437 36.3763 96.8757 36.3763C95.5797 36.3763 94.7637 35.7283 94.7077 34.6723H95.5877C95.6397 35.3043 96.1997 35.6043 96.8757 35.6083C97.6157 35.6043 98.1517 35.2323 98.1557 34.6643C98.1517 34.1603 97.6717 33.9563 97.0597 33.7923L96.3717 33.6083C95.4397 33.3523 94.8637 32.8803 94.8597 32.0723C94.8637 31.0723 95.7517 30.4083 96.9237 30.4083C98.0997 30.4083 98.9197 31.0803 98.9477 32.0163H98.0917ZM99.8997 37.9123V31.9363H100.732V32.6403H100.804C100.956 32.3683 101.248 31.8803 102.052 31.8803C103.104 31.8803 103.876 32.7043 103.876 34.1203C103.876 35.5203 103.112 36.3643 102.06 36.3683C101.272 36.3643 100.96 35.8843 100.804 35.6003H100.756V37.9123H99.8997ZM100.74 34.1043C100.74 35.0163 101.14 35.6363 101.868 35.6403C102.62 35.6363 103.012 34.9763 103.012 34.1043C103.012 33.2483 102.632 32.6043 101.868 32.6083C101.132 32.6043 100.74 33.2003 100.74 34.1043ZM104.524 35.0563C104.52 34.0643 105.364 33.8083 106.148 33.7523C106.436 33.7363 107.088 33.7003 107.288 33.6923L107.284 33.3443C107.288 32.8523 106.984 32.5683 106.404 32.5683C105.9 32.5683 105.596 32.8003 105.508 33.1203H104.66C104.736 32.4003 105.408 31.8803 106.436 31.8803C107.128 31.8803 108.136 32.1323 108.14 33.3923V36.2803H107.308V35.6883H107.276C107.108 36.0123 106.708 36.3763 105.988 36.3763C105.164 36.3763 104.52 35.9043 104.524 35.0563ZM105.356 35.0643C105.356 35.4803 105.7 35.6923 106.18 35.6963C106.876 35.6923 107.292 35.2283 107.292 34.7123L107.288 34.3163C107.092 34.3283 106.472 34.3723 106.268 34.3843C105.708 34.4243 105.356 34.6363 105.356 35.0643ZM109.172 36.2803V31.9363H109.996V32.6243H110.044C110.204 32.1603 110.64 31.8683 111.148 31.8723C111.252 31.8683 111.42 31.8803 111.508 31.8883V32.7043C111.436 32.6883 111.236 32.6523 111.06 32.6563C110.468 32.6523 110.028 33.0643 110.028 33.6323V36.2803H109.172ZM112.148 36.2803V30.4883H113.004V33.7683H113.076L114.796 31.9363H115.82L114.064 33.8003L115.94 36.2803H114.892L113.416 34.3283L113.004 34.7363V36.2803H112.148ZM117.348 30.4883V36.2803H116.492V30.4883H117.348ZM118.388 36.2803V31.9363H119.244V36.2803H118.388ZM118.276 30.7603C118.28 30.4803 118.524 30.2563 118.82 30.2563C119.112 30.2563 119.356 30.4803 119.356 30.7603C119.356 31.0403 119.112 31.2683 118.82 31.2643C118.524 31.2683 118.28 31.0403 118.276 30.7603ZM121.14 33.7043V36.2803H120.284V31.9363H121.108V32.6483H121.156C121.36 32.1803 121.788 31.8803 122.436 31.8803C123.328 31.8803 123.92 32.4443 123.916 33.5203V36.2803H123.068V33.6243C123.064 32.9923 122.724 32.6163 122.148 32.6163C121.56 32.6163 121.14 33.0123 121.14 33.7043ZM126.78 38.0003C125.684 38.0003 124.96 37.5163 124.884 36.7043H125.756C125.84 37.1163 126.224 37.3163 126.788 37.3123C127.468 37.3163 127.896 37.0203 127.9 36.3443V35.4883H127.844C127.692 35.7683 127.38 36.2163 126.58 36.2163C125.556 36.2163 124.764 35.4523 124.764 34.0643C124.764 32.6763 125.544 31.8803 126.588 31.8803C127.396 31.8803 127.692 32.3683 127.852 32.6403H127.908V31.9363H128.74V36.3763C128.744 37.4923 127.9 38.0003 126.78 38.0003ZM125.636 34.0803C125.632 34.9323 126.024 35.5083 126.772 35.5123C127.5 35.5083 127.908 34.9763 127.908 34.0803C127.908 33.2003 127.508 32.6043 126.772 32.6083C126.016 32.6043 125.632 33.2483 125.636 34.0803Z" fill="#2D3034"/>
<rect x="39.4082" y="22.5283" width="40.432" height="21.504" rx="10.752" fill="#6A42DB"/>
<path d="M50.36 36.2803L48.752 30.4883H49.68L50.808 34.9683H50.856L52.032 30.4883H52.944L54.12 34.9683H54.168L55.296 30.4883H56.224L54.616 36.2803H53.728L52.512 31.9523H52.464L51.248 36.2803H50.36ZM57.728 33.7043V36.2803H56.872V30.4883H57.712V32.6483H57.768C57.972 32.1763 58.38 31.8803 59.056 31.8803C59.948 31.8803 60.544 32.4323 60.544 33.5203V36.2803H59.688V33.6243C59.688 32.9843 59.344 32.6163 58.768 32.6163C58.164 32.6163 57.728 33.0123 57.728 33.7043ZM61.576 36.2803V31.9363H62.432V36.2803H61.576ZM61.464 30.7603C61.468 30.4803 61.712 30.2563 62.008 30.2563C62.3 30.2563 62.544 30.4803 62.544 30.7603C62.544 31.0403 62.3 31.2683 62.008 31.2643C61.712 31.2683 61.468 31.0403 61.464 30.7603ZM65.504 31.9363V32.6163H64.616V35.0003C64.62 35.4923 64.86 35.5803 65.136 35.5843C65.26 35.5843 65.448 35.5723 65.568 35.5603V36.3043C65.452 36.3203 65.268 36.3363 65.032 36.3363C64.364 36.3363 63.76 35.9683 63.768 35.1763V32.6163H63.128V31.9363H63.768V30.8963H64.616V31.9363H65.504ZM68.16 36.3683C66.88 36.3683 66.092 35.4843 66.096 34.1363C66.092 32.8003 66.892 31.8803 68.104 31.8803C69.092 31.8803 70.032 32.4923 70.032 34.0643V34.3683H66.944C66.968 35.1963 67.456 35.6643 68.168 35.6643C68.652 35.6643 68.968 35.4563 69.112 35.1923H69.976C69.784 35.8963 69.116 36.3683 68.16 36.3683ZM66.948 33.7283H69.192C69.192 33.0683 68.764 32.5803 68.112 32.5843C67.428 32.5803 66.984 33.1163 66.948 33.7283Z" fill="white"/>
</svg>
