<svg width="14" height="13" viewBox="0 0 14 13" fill="none" xmlns="http://www.w3.org/2000/svg">
<path d="M7.00026 10.9566L3.88776 12.8316C3.75026 12.9191 3.60651 12.9566 3.45651 12.9441C3.30651 12.9316 3.17526 12.8816 3.06276 12.7941C2.95026 12.7066 2.86276 12.5973 2.80026 12.466C2.73776 12.3348 2.72526 12.1879 2.76276 12.0254L3.58776 8.48164L0.831505 6.10039C0.706505 5.98789 0.62838 5.85977 0.59713 5.71602C0.56588 5.57227 0.575255 5.43164 0.625255 5.29414C0.675255 5.15664 0.750255 5.04414 0.850255 4.95664C0.950255 4.86914 1.08776 4.81289 1.26276 4.78789L4.90026 4.46914L6.30651 1.13164C6.36901 0.981641 6.46588 0.869141 6.59713 0.794141C6.72838 0.719141 6.86276 0.681641 7.00026 0.681641C7.13776 0.681641 7.27213 0.719141 7.40338 0.794141C7.53463 0.869141 7.63151 0.981641 7.69401 1.13164L9.10026 4.46914L12.7378 4.78789C12.9128 4.81289 13.0503 4.86914 13.1503 4.95664C13.2503 5.04414 13.3253 5.15664 13.3753 5.29414C13.4253 5.43164 13.4346 5.57227 13.4034 5.71602C13.3721 5.85977 13.294 5.98789 13.169 6.10039L10.4128 8.48164L11.2378 12.0254C11.2753 12.1879 11.2628 12.3348 11.2003 12.466C11.1378 12.5973 11.0503 12.7066 10.9378 12.7941C10.8253 12.8816 10.694 12.9316 10.544 12.9441C10.394 12.9566 10.2503 12.9191 10.1128 12.8316L7.00026 10.9566Z" fill="#CFDBEA"/>
</svg>
